<svg xmlns="http://www.w3.org/2000/svg" viewBox="0 0 320 340" fill="none">
  <path d="M160 20 C130 20 107 43 107 73 L107 90 L48 90 C38 90 30 97 28 106 L8 296 C6 310 17 323 31 323 L289 323 C303 323 314 310 312 296 L292 106 C290 97 282 90 272 90 L213 90 L213 73 C213 43 190 20 160 20 Z M160 36 C180 36 197 53 197 73 L197 90 L123 90 L123 73 C123 53 140 36 160 36 Z" fill="#EE4D2D"/>
  <path d="M160 140 C185 140 205 155 210 175 L190 182 C187 170 176 161 160 161 C144 161 133 168 133 179 C133 190 145 194 167 200 C194 207 215 216 215 238 C215 260 195 275 160 275 C130 275 107 260 102 238 L122 231 C125 245 138 254 160 254 C180 254 195 247 195 238 C195 228 181 223 155 216 C130 209 113 201 113 180 C113 158 131 140 160 140 Z" fill="white"/>
</svg>
